# xmcd
#
# Track frame offsets:
#	150
#	13167
#	33923
#	47909
#	58927
#	75247
#	95019
#	107996
#	122224
#	131051
#	150311
#	170358
#
# Disc length: 2472 seconds
#
# Revision: 2
# Processed by: cddbd v1.5.2PL0 Copyright (c) Steve Scherf et al.
# Submitted via: CDmax 1.9
#
DISCID=9a09a60c
DTITLE=Karen Poston - Unknown CD for MusicBrainz and FreeDB
DYEAR=2001
DGENRE=Country
TTITLE0=real bad
TTITLE1=lydia
TTITLE2=wherever you are
TTITLE3=it only hurts for a little while
TTITLE4=flowered dresses
TTITLE5=he makes me want you
TTITLE6=ride ride ride
TTITLE7=the longhorn song
TTITLE8=you wish
TTITLE9=i could load some lonesome to you
TTITLE10=black ice
TTITLE11=easy to stay
EXTD=YEAR: 2001
EXTT0=
EXTT1=
EXTT2=
EXTT3=
EXTT4=
EXTT5=
EXTT6=
EXTT7=
EXTT8=
EXTT9=
EXTT10=
EXTT11=
PLAYORDER=
